<svg id="visual" viewBox="0 0 900 675" width="900" height="675" xmlns="http://www.w3.org/2000/svg" xmlns:xlink="http://www.w3.org/1999/xlink" version="1.1"><rect x="0" y="0" width="900" height="675" fill="#140021"></rect><path d="M0 457L129 504L257 497L386 455L514 406L643 504L771 487L900 469L900 676L771 676L643 676L514 676L386 676L257 676L129 676L0 676Z" fill="#9900ff"></path><path d="M0 500L129 469L257 446L386 464L514 473L643 493L771 461L900 517L900 676L771 676L643 676L514 676L386 676L257 676L129 676L0 676Z" fill="#8800e2"></path><path d="M0 549L129 537L257 545L386 525L514 521L643 544L771 526L900 568L900 676L771 676L643 676L514 676L386 676L257 676L129 676L0 676Z" fill="#7700c6"></path><path d="M0 591L129 587L257 581L386 582L514 560L643 551L771 547L900 582L900 676L771 676L643 676L514 676L386 676L257 676L129 676L0 676Z" fill="#6600ab"></path><path d="M0 643L129 607L257 593L386 639L514 607L643 591L771 599L900 590L900 676L771 676L643 676L514 676L386 676L257 676L129 676L0 676Z" fill="#560090"></path></svg>