<?xml version="1.0"?>
<svg width="1440" height="560" xmlns="http://www.w3.org/2000/svg" xmlns:svg="http://www.w3.org/2000/svg" preserveAspectRatio="none" version="1.1">
 <defs>
  <mask id="SvgjsMask1005">
   <rect fill="#ffffff" height="560" id="svg_1" width="1440"/>
  </mask>
 </defs>
 <g class="layer">
  <title>Layer 1</title>
  <g fill="none" id="svg_2" mask="url(&quot;#SvgjsMask1005&quot;)">
   <path d="m-336.3,449c96,-57 288,-273.6 480,-285c192,-11.4 288,215 480,228c192,13 288,-199 480,-163c192,36 411.93,327.4 480,343c68.06,15.6 -111.76,-212 -139.7,-265" id="svg_3" stroke="rgba(86, 0, 144, 0.46)" stroke-width="2"/>
   <path d="m-152.2,431c96,-56.6 288,-288.4 480,-283c192,5.4 288,289 480,310c192,21 288,-218.2 480,-205c192,13.2 448.76,286.2 480,271c31.24,-15.2 -259.04,-277.6 -323.8,-347" id="svg_4" stroke="rgba(86, 0, 144, 0.46)" stroke-width="2"/>
   <path d="m-252.96,556c96,-46 288,-203.8 480,-230c192,-26.2 288,125.6 480,99c192,-26.6 288,-221.2 480,-232c192,-10.8 428.61,161.8 480,178c51.39,16.2 -178.43,-77.6 -223.04,-97" id="svg_5" stroke="rgba(86, 0, 144, 0.46)" stroke-width="2"/>
   <path d="m-541.64,291c96,42.2 288,230.8 480,211c192,-19.8 288,-290.6 480,-310c192,-19.4 288,194.8 480,213c192,18.2 370.87,-155 480,-122c109.13,33 52.51,229.6 65.64,287" id="svg_6" stroke="rgba(86, 0, 144, 0.46)" stroke-width="2"/>
  </g>
 </g>
</svg>