<svg id="visual" viewBox="0 0 900 675" width="900" height="675" xmlns="http://www.w3.org/2000/svg" xmlns:xlink="http://www.w3.org/1999/xlink" version="1.1"><rect x="0" y="0" width="900" height="675" fill="#140021"></rect><path d="M0 240L129 232L257 181L386 224L514 220L643 240L771 187L900 275L900 0L771 0L643 0L514 0L386 0L257 0L129 0L0 0Z" fill="#9900ff"></path><path d="M0 188L129 175L257 166L386 145L514 149L643 179L771 180L900 146L900 0L771 0L643 0L514 0L386 0L257 0L129 0L0 0Z" fill="#8800e2"></path><path d="M0 163L129 107L257 178L386 182L514 119L643 139L771 104L900 105L900 0L771 0L643 0L514 0L386 0L257 0L129 0L0 0Z" fill="#7700c6"></path><path d="M0 83L129 126L257 111L386 115L514 66L643 87L771 126L900 89L900 0L771 0L643 0L514 0L386 0L257 0L129 0L0 0Z" fill="#6600ab"></path><path d="M0 41L129 56L257 48L386 58L514 82L643 34L771 51L900 58L900 0L771 0L643 0L514 0L386 0L257 0L129 0L0 0Z" fill="#560090"></path></svg>