<svg xmlns="http://www.w3.org/2000/svg" version="1.1" xmlns:xlink="http://www.w3.org/1999/xlink" xmlns:svgjs="http://svgjs.dev/svgjs" viewBox="0 0 640 800" id="qqquad"><g shape-rendering="crispEdges" stroke-linejoin="round" fill="none" stroke-width="2" stroke="hsl(220, 4%, 33%)"><polygon points="480,0 640,200 480,200"></polygon><polygon points="480,200 320,200 480,0"></polygon><polygon points="480,400 480,200 320,400"></polygon><polygon points="640,200 480,400 640,400"></polygon><polygon points="160,0 320,0 160,200"></polygon><polygon points="160,0 160,200 0,0"></polygon><polygon points="160,200 0,400 0,200"></polygon><polygon points="320,200 240,200 240,300"></polygon><polygon points="240,200 240,300 160,300"></polygon><polygon points="240,400 160,400 160,300"></polygon><polygon points="320,400 320,300 240,300"></polygon><polygon points="320,500 240,400 320,400"></polygon><polygon points="240,400 240,500 160,400"></polygon><polygon points="160,600 240,500 160,500"></polygon><polygon points="320,500 320,600 240,600"></polygon><polygon points="0,400 0,600 160,400"></polygon><polygon points="0,800 0,600 160,600"></polygon><polygon points="320,600 160,600 160,800"></polygon><polygon points="640,600 640,400 480,400"></polygon><polygon points="400,400 480,500 480,400"></polygon><polygon points="400,500 400,400 320,500"></polygon><polygon points="400,600 400,500 320,600"></polygon><polygon points="400,500 480,600 480,500"></polygon><polygon points="320,600 480,800 320,800"></polygon><polygon points="480,800 640,600 480,600"></polygon></g><g fill="hsl(220, 62%, 45%)" stroke-width="3" stroke="hsl(220, 43%, 13%)"></g></svg>